Patient4_TMGait_0pt6_02_right_47_GRF.mot
version=1
nRows=58
nColumns=19
inDegrees=no
endheader
time	F1x	F1y	F1z	M1x	M1y	M1z	F2x	F2y	F2z	M2x	M2y	M2z	EC1x	EC1y	EC1z	EC2x	EC2y	EC2z
56.77	5.519	746.4783	53.93	-278.2659	-50.5559	769.7932	8.897	8.6356	7.1227	0.93475	-11.6723	9.639	-0.0592	0.0182	-0.0073	-0.0462	0.0165	0.9585
56.7818	10.8955	745.6817	52.8592	-278.3176	-47.7915	767.1955	5.8985	7.0407	4.7036	1.1053	-7.7722	7.9657	-0.0592	0.0182	-0.0073	-0.0462	0.0165	0.9585
56.7936	16.1081	744.9561	51.74	-278.4052	-44.9273	763.9198	3.3293	5.7523	2.6713	1.268	-4.4457	6.6445	-0.0592	0.0182	-0.0073	-0.0462	0.0165	0.9585
56.8054	20.8696	744.5004	50.6673	-278.5752	-42.1529	760.2437	1.3386	4.8431	1.1315	1.4138	-1.8921	5.7512	-0.0592	0.0182	-0.0073	-0.0462	0.0165	0.9585
56.8171	25.0747	744.4443	49.7549	-278.8479	-39.6196	756.435	-0.056649	4.2697	0.074588	1.5334	-0.11905	5.211	-0.0592	0.0182	-0.0073	-0.0462	0.0165	0.9585
56.8289	28.7164	744.7644	49.086	-279.1903	-37.4189	752.6355	-0.95115	3.9683	-0.5859	1.6234	1.001	4.9585	-0.0592	0.0182	-0.0073	-0.0462	0.0165	0.9585
56.8407	31.8667	745.2981	48.7401	-279.5171	-35.6163	748.8611	-1.4536	3.8015	-0.93882	1.6641	1.6141	4.8282	-0.0592	0.0182	-0.0073	-0.0462	0.0165	0.9585
56.8525	34.5827	745.7776	48.7349	-279.7093	-34.2209	745.0003	-1.6984	3.6595	-1.0821	1.6388	1.8833	4.7031	-0.0592	0.0182	-0.0073	-0.0462	0.0165	0.9585
56.8643	36.923	745.8765	49.079	-279.6332	-33.2381	740.8643	-1.7614	3.3841	-1.0992	1.5161	1.9355	4.385	-0.0592	0.0182	-0.0073	-0.0462	0.0165	0.9585
56.8761	38.9668	745.3554	49.7274	-279.1901	-32.6176	736.3268	-1.7452	2.8267	-1.0552	1.2595	1.8782	3.7075	-0.0592	0.0182	-0.0073	-0.0462	0.0165	0.9585
56.8879	40.7836	744.0846	50.6393	-278.3318	-32.3112	731.3049	-1.6708	1.8331	-1.0004	0.82664	1.7832	2.4817	-0.0592	0.0182	-0.0073	-0.0462	0.0165	0.9585
56.8996	42.4595	742.081	51.7593	-277.0733	-32.2458	725.8254	-1.5906	0.27723	-0.9536	0.17926	1.6904	0.57066	-0.0592	0.0182	-0.0073	-0.0462	0.0165	0.9585
56.9114	44.1447	739.5137	53.0554	-275.492	-32.3563	720.0427	-1.4782	-1.9007	-0.92198	-0.69838	1.6023	-2.1128	-0.0592	0.0182	-0.0073	-0.0462	0.0165	0.9585
56.9232	45.9333	736.6893	54.5172	-273.7137	-32.6112	714.2392	-1.3354	-4.6188	-0.88588	-1.7716	1.4914	-5.4651	-0.0592	0.0182	-0.0073	-0.0462	0.0165	0.9585
56.935	47.9132	734.0124	56.1453	-271.8943	-32.9953	708.7812	-1.1082	-7.6145	-0.80844	-2.9334	1.2954	-9.1655	-0.0592	0.0182	-0.0073	-0.0462	0.0165	0.9585
56.9468	50.0919	731.8505	57.9238	-270.1754	-33.4957	704.0281	-0.77246	-10.2921	-0.63478	-3.9519	0.93609	-12.4745	-0.0592	0.0182	-0.0073	-0.0462	0.0165	0.9585
56.9586	52.4235	730.4002	59.798	-268.6364	-34.0782	700.1705	-0.2696	-11.6784	-0.29545	-4.4437	0.31369	-14.2152	-0.0592	0.0182	-0.0073	-0.0462	0.0165	0.9585
56.9704	54.7843	729.585	61.7055	-267.2537	-34.7266	697.178	0.41299	-10.2772	0.28008	-3.825	-0.65657	-12.56	-0.0592	0.0182	-0.0073	-0.0462	0.0165	0.9585
56.9821	57.0123	728.9333	63.5546	-265.8629	-35.4147	694.6354	1.2842	-4.0785	1.1473	-1.3079	-2.0334	-5.0727	-0.0592	0.0182	-0.0073	-0.0462	0.0165	0.9585
56.9939	58.882	727.586	65.2438	-264.1592	-36.1256	691.7873	2.2651	9.4174	2.3296	4.0813	-3.7978	11.3035	-0.0592	0.0182	-0.0073	-0.0462	0.0165	0.9585
57.0057	60.1884	724.3193	66.6133	-261.7103	-36.7905	687.5417	3.2118	32.9188	3.7832	13.3952	-5.817	39.8701	-0.0592	0.0182	-0.0073	-0.0462	0.0165	0.9585
57.0175	60.6958	717.6825	67.4522	-258.0089	-37.3013	680.5997	3.8426	68.8722	5.3618	27.5698	-7.7741	83.6286	-0.0592	0.0182	-0.0073	-0.0462	0.0165	0.9585
57.0293	60.2328	706.1525	67.504	-252.5385	-37.4884	669.5531	3.7378	118.5284	6.7666	47.0617	-9.1082	144.1225	-0.0592	0.0182	-0.0073	-0.0462	0.0165	0.9585
57.0411	58.7045	688.3703	66.5076	-244.8627	-37.1467	653.1173	2.2858	180.6572	7.4683	71.335	-8.9182	219.891	-0.0592	0.0182	-0.0073	-0.0462	0.0165	0.9585
57.0529	56.1693	663.3789	64.2512	-234.7145	-36.0649	630.2886	-1.4003	249.9869	6.6988	98.263	-5.955	304.5406	-0.0592	0.0182	-0.0073	-0.0462	0.0165	0.9585
57.0646	52.819	630.8967	60.6327	-222.08	-34.0783	600.6523	-7.8147	316.7447	3.5208	123.9888	0.97156	386.1621	-0.0592	0.0182	-0.0073	-0.0462	0.0165	0.9585
57.0764	49.027	591.3985	55.7672	-207.2131	-31.1638	564.4119	-15.6268	371.6657	-2.7766	144.9228	11.9695	453.241	-0.0592	0.0182	-0.0073	-0.0462	0.0165	0.9585
57.0882	45.1177	546.0289	49.9826	-190.5565	-27.4939	522.4177	-23.4784	412.5378	-11.0836	160.2054	25.2307	502.8644	-0.0592	0.0182	-0.0073	-0.0462	0.0165	0.9585
57.1	41.2587	495.7904	43.842	-172.4613	-23.509	475.4523	-30.4537	442.0732	-20.5751	170.9423	39.3968	538.146	-0.0592	0.0182	-0.0073	-0.0462	0.0165	0.9585
57.1118	37.4145	441.6208	37.8224	-153.2152	-19.6351	424.3861	-36.186	465.1214	-29.8583	179.1038	52.7181	564.9584	-0.0592	0.0182	-0.0073	-0.0462	0.0165	0.9585
57.1236	33.4087	384.6049	32.1827	-133.1511	-16.156	370.2666	-40.2742	486.4641	-38.0075	186.6171	63.9949	589.0508	-0.0592	0.0182	-0.0073	-0.0462	0.0165	0.9585
57.1354	28.963	326.2903	27.0013	-112.7577	-13.2313	314.6611	-42.842	509.5396	-44.4143	194.8666	72.5783	614.6347	-0.0592	0.0182	-0.0073	-0.0462	0.0165	0.9585
57.1471	23.9408	268.5828	22.2385	-92.6618	-10.8802	259.4489	-43.9488	536.0266	-48.9872	204.5177	78.4378	643.6884	-0.0592	0.0182	-0.0073	-0.0462	0.0165	0.9585
57.1589	18.342	213.6322	17.8967	-73.5822	-9.1068	206.7755	-43.9473	566.2031	-52.2674	215.6372	82.3112	676.6516	-0.0592	0.0182	-0.0073	-0.0462	0.0165	0.9585
57.1707	12.5417	163.5716	13.9827	-56.2417	-7.7902	158.6931	-43.0394	599.1581	-54.8149	227.8399	84.9646	712.4763	-0.0592	0.0182	-0.0073	-0.0462	0.0165	0.9585
57.1825	7.0534	120.0408	10.5706	-41.1927	-6.8049	116.8089	-41.593	633.4121	-57.395	240.4942	87.3776	749.5319	-0.0592	0.0182	-0.0073	-0.0462	0.0165	0.9585
57.1943	2.4354	83.8622	7.6701	-28.7143	-5.9505	81.8832	-39.8942	667.0329	-60.1771	252.8554	89.8857	785.5737	-0.0592	0.0182	-0.0073	-0.0462	0.0165	0.9585
57.2061	-1.0229	55.1414	5.2937	-18.8272	-5.1207	54.0876	-38.2831	698.42	-63.2107	264.3139	92.6366	818.8309	-0.0592	0.0182	-0.0073	-0.0462	0.0165	0.9585
57.2179	-3.1616	33.3452	3.3988	-11.3437	-4.2208	32.9286	-36.8005	726.5284	-65.9689	274.5129	95.0817	848.0751	-0.0592	0.0182	-0.0073	-0.0462	0.0165	0.9585
57.2296	-4.0662	17.713	1.9137	-5.9885	-3.2181	17.7361	-35.5373	750.7266	-68.0816	283.244	96.8069	872.6598	-0.0592	0.0182	-0.0073	-0.0462	0.0165	0.9585
57.2414	-3.9219	7.2697	0.79292	-2.4223	-2.1546	7.5541	-34.4161	770.4695	-69.1885	290.3303	97.3888	891.9923	-0.0592	0.0182	-0.0073	-0.0462	0.0165	0.9585
57.2532	-3.2324	1.0404	-0.010879	-0.30123	-1.168	1.4859	-33.4602	785.2686	-69.357	295.5781	96.8805	905.6193	-0.0592	0.0182	-0.0073	-0.0462	0.0165	0.9585
57.265	-2.3171	-2.0667	-0.49643	0.75193	-0.3873	-1.5517	-32.632	794.712	-68.7035	298.8309	95.402	913.1377	-0.0592	0.0182	-0.0073	-0.0462	0.0165	0.9585
57.2768	-1.443	-3.0478	-0.77346	1.0808	0.19187	-2.486	-31.9208	798.9304	-67.504	300.1119	93.2582	914.7944	-0.0592	0.0182	-0.0073	-0.0462	0.0165	0.9585
57.2886	-0.67794	-2.7651	-0.86648	0.97802	0.55558	-2.2097	-31.2736	798.4772	-65.964	299.6241	90.6813	911.2485	-0.0592	0.0182	-0.0073	-0.0462	0.0165	0.9585
57.3004	-0.115	-1.8216	-0.86937	0.65011	0.75881	-1.2827	-30.6437	794.358	-64.2629	297.739	87.8772	903.6597	-0.0592	0.0182	-0.0073	-0.0462	0.0165	0.9585
57.3121	0.3028	-0.68335	-0.79562	0.25001	0.8298	-0.19341	-29.9239	787.778	-62.5257	294.9132	84.9698	893.3684	-0.0592	0.0182	-0.0073	-0.0462	0.0165	0.9585
57.3239	0.53788	0.44089	-0.69906	-0.1484	0.81597	0.89997	-29.077	779.9825	-60.8224	291.6241	82.0367	881.7454	-0.0592	0.0182	-0.0073	-0.0462	0.0165	0.9585
57.3357	0.69256	1.3726	-0.58735	-0.49026	0.75359	1.7901	-28.0282	772.1104	-59.2403	288.3078	79.1632	870.0224	-0.0592	0.0182	-0.0073	-0.0462	0.0165	0.9585
57.3475	0.74145	2.1129	-0.48547	-0.77077	0.66421	2.5221	-26.7668	765.0319	-57.823	285.2992	76.4041	859.1407	-0.0592	0.0182	-0.0073	-0.0462	0.0165	0.9585
57.3593	0.76483	2.6381	-0.38765	-0.98297	0.56763	3.028	-25.3202	759.267	-56.6619	282.8006	73.8705	849.6553	-0.0592	0.0182	-0.0073	-0.0462	0.0165	0.9585
57.3711	0.72671	3.0159	-0.30484	-1.1402	0.46788	3.4155	-23.7115	755.0743	-55.7808	280.9087	71.6054	841.8361	-0.0592	0.0182	-0.0073	-0.0462	0.0165	0.9585
57.3829	0.69576	3.253	-0.23471	-1.2442	0.3825	3.6377	-21.982	752.4119	-55.2276	279.6085	69.6746	835.6302	-0.0592	0.0182	-0.0073	-0.0462	0.0165	0.9585
57.3946	0.61817	3.3955	-0.17835	-1.3029	0.30243	3.7798	-20.1588	751.0671	-54.9641	278.8187	68.0542	830.7954	-0.0592	0.0182	-0.0073	-0.0462	0.0165	0.9585
57.4064	0.55977	3.4054	-0.13054	-1.3078	0.24142	3.7569	-18.2757	750.6778	-54.9657	278.4013	66.7312	826.9324	-0.0592	0.0182	-0.0073	-0.0462	0.0165	0.9585
57.4182	0.46562	3.2834	-0.086056	-1.2554	0.17764	3.5978	-16.356	750.7767	-55.1504	278.1833	65.6324	823.5339	-0.0592	0.0182	-0.0073	-0.0462	0.0165	0.9585
57.43	0.39056	2.9373	-0.049181	-1.1186	0.12426	3.1569	-14.4077	750.9012	-55.4586	277.9918	64.699	820.0928	-0.0592	0.0182	-0.0073	-0.0462	0.0165	0.9585
57.4418	0.2852	2.3197	-0.016971	-0.87494	0.062579	2.4095	-12.4335	750.6369	-55.8238	277.6762	63.8608	816.1556	-0.0592	0.0182	-0.0073	-0.0462	0.0165	0.9585
